<?xml version="1.0" encoding="UTF-8" standalone="no"?>
<svg width="13px" height="13px" viewBox="0 0 13 13" version="1.1" xmlns="http://www.w3.org/2000/svg" xmlns:xlink="http://www.w3.org/1999/xlink">
    <!-- Generator: Sketch 3.8.3 (29802) - http://www.bohemiancoding.com/sketch -->
    <title>Group 2</title>
    <desc>Created with Sketch.</desc>
    <defs></defs>
    <g id="Page-1" stroke="none" stroke-width="1" fill="none" fill-rule="evenodd">
        <g id="Artboard-1" transform="translate(-90.000000, -180.000000)">
            <g id="Group-2" transform="translate(90.000000, 180.000000)">
                <circle id="Oval-2" fill="#FFFFFF" cx="6.5" cy="6.5" r="5.5"></circle>
                <g id="info-with-circle" fill="#00AAFF">
                    <path d="M6.50033852,0 C2.90995261,0 0,2.90995261 0,6.49966148 C0,10.0900474 2.90995261,13 6.50033852,13 C10.0893703,13 13,10.0900474 13,6.49966148 C13,2.90995261 10.0893703,0 6.50033852,0 L6.50033852,0 Z M7.1069736,2.34664861 C7.74069059,2.34664861 7.92687881,2.71428571 7.92687881,3.13473257 C7.92687881,3.65944482 7.507109,4.14488829 6.7901151,4.14488829 C6.19025051,4.14488829 5.90453622,3.8436019 5.92213947,3.34461747 C5.92213947,2.92417062 6.27352742,2.34664861 7.1069736,2.34664861 L7.1069736,2.34664861 Z M5.48341232,10.3926879 C5.05010156,10.3926879 4.73392011,10.1293162 5.0365606,8.97494922 L5.53283683,6.92687881 C5.61882194,6.59918754 5.63303995,6.46784022 5.53283683,6.46784022 C5.40352065,6.46784022 4.8408937,6.69397427 4.50914015,6.91740014 L4.29316181,6.56330399 C5.34597156,5.68381855 6.55653351,5.16790792 7.07447529,5.16790792 C7.50778605,5.16790792 7.57955315,5.67975626 7.36357481,6.46784022 L6.79485443,8.62085308 C6.69397427,9.0013541 6.73730535,9.13270142 6.83818551,9.13270142 C6.96817874,9.13270142 7.39336493,8.97562627 7.81178064,8.64590386 L8.05687204,8.97494922 C7.03249831,9.9986459 5.91604604,10.3926879 5.48341232,10.3926879 L5.48341232,10.3926879 Z" id="Shape"></path>
                </g>
            </g>
        </g>
    </g>
</svg>